<svg width="43" height="43" viewBox="0 0 43 43" fill="none" xmlns="http://www.w3.org/2000/svg">
<path d="M6.10938 39.4167C6.10938 32.483 13.0073 26.875 21.4998 26.875M39.4165 39.4167L37.6248 37.625M21.4998 21.5C23.8757 21.5 26.1543 20.5562 27.8343 18.8762C29.5143 17.1962 30.4581 14.9176 30.4581 12.5417C30.4581 10.1658 29.5143 7.88722 27.8343 6.20721C26.1543 4.5272 23.8757 3.58337 21.4998 3.58337C19.1239 3.58337 16.8453 4.5272 15.1653 6.20721C13.4853 7.88722 12.5415 10.1658 12.5415 12.5417C12.5415 14.9176 13.4853 17.1962 15.1653 18.8762C16.8453 20.5562 19.1239 21.5 21.4998 21.5V21.5ZM32.6081 38.3417C34.1287 38.3417 35.587 37.7377 36.6622 36.6625C37.7374 35.5872 38.3415 34.1289 38.3415 32.6084C38.3415 31.0878 37.7374 29.6295 36.6622 28.5543C35.587 27.4791 34.1287 26.875 32.6081 26.875C31.0876 26.875 29.6293 27.4791 28.554 28.5543C27.4788 29.6295 26.8748 31.0878 26.8748 32.6084C26.8748 34.1289 27.4788 35.5872 28.554 36.6625C29.6293 37.7377 31.0876 38.3417 32.6081 38.3417Z" stroke="#84B6EB" stroke-width="1.5" stroke-linecap="round" stroke-linejoin="round"/>
</svg>
