<svg width="35" height="43" viewBox="0 0 35 43" fill="none" xmlns="http://www.w3.org/2000/svg">
<path d="M21.4577 8.18746H13.291M33.7077 11.25V31.6666C33.7077 39.8333 31.666 41.875 23.4993 41.875H11.2493C3.08268 41.875 1.04102 39.8333 1.04102 31.6666V11.25C1.04102 3.08329 3.08268 1.04163 11.2493 1.04163H23.4993C31.666 1.04163 33.7077 3.08329 33.7077 11.25Z" stroke="#84B6EB" stroke-width="1.5" stroke-linecap="round" stroke-linejoin="round"/>
<path d="M17.3755 35.9542C18.2148 35.9542 19.0197 35.6208 19.6132 35.0273C20.2067 34.4338 20.5401 33.6289 20.5401 32.7896C20.5401 31.9503 20.2067 31.1454 19.6132 30.5519C19.0197 29.9584 18.2148 29.625 17.3755 29.625C16.5362 29.625 15.7313 29.9584 15.1378 30.5519C14.5443 31.1454 14.2109 31.9503 14.2109 32.7896C14.2109 33.6289 14.5443 34.4338 15.1378 35.0273C15.7313 35.6208 16.5362 35.9542 17.3755 35.9542V35.9542Z" stroke="#84B6EB" stroke-width="1.5" stroke-linecap="round" stroke-linejoin="round"/>
</svg>
